<svg aria-hidden="true" style="position: absolute; width: 0; height: 0; overflow: hidden;" version="1.1" xmlns="http://www.w3.org/2000/svg" xmlns:xlink="http://www.w3.org/1999/xlink">
<defs>
<symbol id="icon-mastodon" viewBox="0 0 32 32">
<path fill="#3088d4" style="fill: var(--color1, #3088d4)" d="M30.924 10.505c0-6.941-4.548-8.976-4.548-8.976-2.293-1.053-6.232-1.496-10.321-1.529h-0.101c-4.091 0.033-8.027 0.476-10.32 1.529 0 0-4.548 2.035-4.548 8.976 0 1.589-0.031 3.491 0.020 5.505 0.165 6.789 1.245 13.479 7.521 15.14 2.893 0.765 5.379 0.927 7.38 0.816 3.629-0.2 5.667-1.296 5.667-1.296l-0.12-2.633c0 0-2.593 0.817-5.505 0.719-2.887-0.099-5.932-0.311-6.399-3.855-0.041-0.29-0.064-0.626-0.064-0.967 0-0.009 0-0.018 0-0.028v0.001c0 0 2.833 0.693 6.423 0.857 2.195 0.1 4.253-0.129 6.344-0.377 4.009-0.479 7.5-2.949 7.939-5.207 0.689-3.553 0.633-8.676 0.633-8.676zM25.559 19.451h-3.329v-8.159c0-1.72-0.724-2.592-2.171-2.592-1.6 0-2.403 1.035-2.403 3.083v4.465h-3.311v-4.467c0-2.048-0.803-3.083-2.403-3.083-1.447 0-2.171 0.873-2.171 2.592v8.159h-3.329v-8.404c0-1.719 0.437-3.084 1.316-4.093 0.907-1.011 2.092-1.528 3.565-1.528 1.704 0 2.995 0.655 3.848 1.965l0.828 1.391 0.829-1.391c0.853-1.311 2.144-1.965 3.848-1.965 1.472 0 2.659 0.517 3.565 1.528 0.877 1.009 1.315 2.375 1.315 4.093z"></path>
</symbol>
<symbol id="icon-folder-open" viewBox="0 0 32 32">
<path d="M26 30l6-16h-26l-6 16zM4 12l-4 18v-26h9l4 4h13v4z"></path>
</symbol>
<symbol id="icon-envelop" viewBox="0 0 32 32">
<path d="M29 4h-26c-1.65 0-3 1.35-3 3v20c0 1.65 1.35 3 3 3h26c1.65 0 3-1.35 3-3v-20c0-1.65-1.35-3-3-3zM12.461 17.199l-8.461 6.59v-15.676l8.461 9.086zM5.512 8h20.976l-10.488 7.875-10.488-7.875zM12.79 17.553l3.21 3.447 3.21-3.447 6.58 8.447h-19.579l6.58-8.447zM19.539 17.199l8.461-9.086v15.676l-8.461-6.59z"></path>
</symbol>
<symbol id="icon-sphere" viewBox="0 0 32 32">
<path d="M15 2c-8.284 0-15 6.716-15 15s6.716 15 15 15c8.284 0 15-6.716 15-15s-6.716-15-15-15zM23.487 22c0.268-1.264 0.437-2.606 0.492-4h3.983c-0.104 1.381-0.426 2.722-0.959 4h-3.516zM6.513 12c-0.268 1.264-0.437 2.606-0.492 4h-3.983c0.104-1.381 0.426-2.722 0.959-4h3.516zM21.439 12c0.3 1.28 0.481 2.62 0.54 4h-5.979v-4h5.439zM16 10v-5.854c0.456 0.133 0.908 0.355 1.351 0.668 0.831 0.586 1.625 1.488 2.298 2.609 0.465 0.775 0.867 1.638 1.203 2.578h-4.852zM10.351 7.422c0.673-1.121 1.467-2.023 2.298-2.609 0.443-0.313 0.895-0.535 1.351-0.668v5.854h-4.852c0.336-0.94 0.738-1.803 1.203-2.578zM14 12v4h-5.979c0.059-1.38 0.24-2.72 0.54-4h5.439zM2.997 22c-0.533-1.278-0.854-2.619-0.959-4h3.983c0.055 1.394 0.224 2.736 0.492 4h-3.516zM8.021 18h5.979v4h-5.439c-0.3-1.28-0.481-2.62-0.54-4zM14 24v5.854c-0.456-0.133-0.908-0.355-1.351-0.668-0.831-0.586-1.625-1.488-2.298-2.609-0.465-0.775-0.867-1.638-1.203-2.578h4.852zM19.649 26.578c-0.673 1.121-1.467 2.023-2.298 2.609-0.443 0.312-0.895 0.535-1.351 0.668v-5.854h4.852c-0.336 0.94-0.738 1.802-1.203 2.578zM16 22v-4h5.979c-0.059 1.38-0.24 2.72-0.54 4h-5.439zM23.98 16c-0.055-1.394-0.224-2.736-0.492-4h3.516c0.533 1.278 0.855 2.619 0.959 4h-3.983zM25.958 10h-2.997c-0.582-1.836-1.387-3.447-2.354-4.732 1.329 0.636 2.533 1.488 3.585 2.54 0.671 0.671 1.261 1.404 1.766 2.192zM5.808 7.808c1.052-1.052 2.256-1.904 3.585-2.54-0.967 1.285-1.771 2.896-2.354 4.732h-2.997c0.504-0.788 1.094-1.521 1.766-2.192zM4.042 24h2.997c0.583 1.836 1.387 3.447 2.354 4.732-1.329-0.636-2.533-1.488-3.585-2.54-0.671-0.671-1.261-1.404-1.766-2.192zM24.192 26.192c-1.052 1.052-2.256 1.904-3.585 2.54 0.967-1.285 1.771-2.896 2.354-4.732h2.997c-0.504 0.788-1.094 1.521-1.766 2.192z"></path>
</symbol>
<symbol id="icon-github" viewBox="0 0 32 32">
<path d="M16 0.395c-8.836 0-16 7.163-16 16 0 7.069 4.585 13.067 10.942 15.182 0.8 0.148 1.094-0.347 1.094-0.77 0-0.381-0.015-1.642-0.022-2.979-4.452 0.968-5.391-1.888-5.391-1.888-0.728-1.849-1.776-2.341-1.776-2.341-1.452-0.993 0.11-0.973 0.11-0.973 1.606 0.113 2.452 1.649 2.452 1.649 1.427 2.446 3.743 1.739 4.656 1.33 0.143-1.034 0.558-1.74 1.016-2.14-3.554-0.404-7.29-1.777-7.29-7.907 0-1.747 0.625-3.174 1.649-4.295-0.166-0.403-0.714-2.030 0.155-4.234 0 0 1.344-0.43 4.401 1.64 1.276-0.355 2.645-0.532 4.005-0.539 1.359 0.006 2.729 0.184 4.008 0.539 3.054-2.070 4.395-1.64 4.395-1.64 0.871 2.204 0.323 3.831 0.157 4.234 1.026 1.12 1.647 2.548 1.647 4.295 0 6.145-3.743 7.498-7.306 7.895 0.574 0.497 1.085 1.47 1.085 2.963 0 2.141-0.019 3.864-0.019 4.391 0 0.426 0.288 0.925 1.099 0.768 6.354-2.118 10.933-8.113 10.933-15.18 0-8.837-7.164-16-16-16z"></path>
</symbol>
<symbol id="icon-linkedin" viewBox="0 0 32 32">
<path d="M29 0h-26c-1.65 0-3 1.35-3 3v26c0 1.65 1.35 3 3 3h26c1.65 0 3-1.35 3-3v-26c0-1.65-1.35-3-3-3zM12 26h-4v-14h4v14zM10 10c-1.106 0-2-0.894-2-2s0.894-2 2-2c1.106 0 2 0.894 2 2s-0.894 2-2 2zM26 26h-4v-8c0-1.106-0.894-2-2-2s-2 0.894-2 2v8h-4v-14h4v2.481c0.825-1.131 2.087-2.481 3.5-2.481 2.488 0 4.5 2.238 4.5 5v9z"></path>
</symbol>
</defs>
</svg>
